# xmcd
#
# Track frame offsets: 
#        150
#        13932
#        27000
#        44508
#        55548
#        72315
#        89697
#        105565
#        120776
#        135740
#        152662
#
# Disc length: 2191 seconds
#
# Revision: 0
# Processed by: cddbd v1.5.2PL0 Copyright (c) Steve Scherf et al.
# Submitted via: ExactAudioCopyFreeDBPlugin 1.0
#
DISCID=88088d0b
DTITLE=Smiling Jack Smith and David Gwynn - Simple Pleasure
DYEAR=2014
DGENRE=Blues
TTITLE0=Simple Pleasure
TTITLE1=Lovestruck
TTITLE2=Blinded
TTITLE3=Bedroom Eyes
TTITLE4=What You Gonna Do When The Love Runs Out
TTITLE5=Boogie On
TTITLE6=Third Act
TTITLE7=No More Ramblin'
TTITLE8=You Can't Get There From Here
TTITLE9=Exixtential Boogie
TTITLE10=Too Long Time
EXTD=
EXTT0=
EXTT1=
EXTT2=
EXTT3=
EXTT4=
EXTT5=
EXTT6=
EXTT7=
EXTT8=
EXTT9=
EXTT10=
PLAYORDER=
